<?xml version="1.0" encoding="UTF-8"?>
<svg width="1920px" height="1081px" viewBox="0 0 1920 1081" version="1.1" xmlns="http://www.w3.org/2000/svg" xmlns:xlink="http://www.w3.org/1999/xlink">
    <!-- Generator: Sketch 59.1 (86144) - https://sketch.com -->
    <title>背景</title>
    <desc>Created with Sketch.</desc>
    <defs>
        <linearGradient x1="50%" y1="0%" x2="50%" y2="100%" id="linearGradient-1">
            <stop stop-color="#1B217E" offset="0%"></stop>
            <stop stop-color="#221AAA" stop-opacity="0.7" offset="100%"></stop>
        </linearGradient>
        <linearGradient x1="50%" y1="0%" x2="50%" y2="82.754488%" id="linearGradient-2">
            <stop stop-color="#1B1F7F" offset="0%"></stop>
            <stop stop-color="#3E48C8" stop-opacity="0.800125656" offset="75.5522209%"></stop>
            <stop stop-color="#4753DB" stop-opacity="0" offset="100%"></stop>
        </linearGradient>
        <linearGradient x1="47.9402946%" y1="-10.1634172%" x2="47.9402946%" y2="66.1993412%" id="linearGradient-3">
            <stop stop-color="#0D0769" offset="0%"></stop>
            <stop stop-color="#484DFF" stop-opacity="0.88715865" offset="42.6538714%"></stop>
            <stop stop-color="#3E48C8" stop-opacity="0.800125656" offset="71.6807556%"></stop>
            <stop stop-color="#4753DB" stop-opacity="0" offset="100%"></stop>
        </linearGradient>
        <ellipse id="path-4" cx="690.003543" cy="389.004741" rx="31" ry="19"></ellipse>
        <filter x="-66.1%" y="-107.9%" width="232.3%" height="315.8%" filterUnits="objectBoundingBox" id="filter-5">
            <feMorphology radius="1" operator="dilate" in="SourceAlpha" result="shadowSpreadOuter1"></feMorphology>
            <feOffset dx="0" dy="0" in="shadowSpreadOuter1" result="shadowOffsetOuter1"></feOffset>
            <feMorphology radius="6" operator="erode" in="SourceAlpha" result="shadowInner"></feMorphology>
            <feOffset dx="0" dy="0" in="shadowInner" result="shadowInner"></feOffset>
            <feComposite in="shadowOffsetOuter1" in2="shadowInner" operator="out" result="shadowOffsetOuter1"></feComposite>
            <feGaussianBlur stdDeviation="13" in="shadowOffsetOuter1" result="shadowBlurOuter1"></feGaussianBlur>
            <feColorMatrix values="0 0 0 0 0.4   0 0 0 0 0.6   0 0 0 0 1  0 0 0 1 0" type="matrix" in="shadowBlurOuter1"></feColorMatrix>
        </filter>
        <ellipse id="path-6" cx="1383.00354" cy="385.004741" rx="31" ry="19"></ellipse>
        <filter x="-66.1%" y="-107.9%" width="232.3%" height="315.8%" filterUnits="objectBoundingBox" id="filter-7">
            <feMorphology radius="1" operator="dilate" in="SourceAlpha" result="shadowSpreadOuter1"></feMorphology>
            <feOffset dx="0" dy="0" in="shadowSpreadOuter1" result="shadowOffsetOuter1"></feOffset>
            <feMorphology radius="6" operator="erode" in="SourceAlpha" result="shadowInner"></feMorphology>
            <feOffset dx="0" dy="0" in="shadowInner" result="shadowInner"></feOffset>
            <feComposite in="shadowOffsetOuter1" in2="shadowInner" operator="out" result="shadowOffsetOuter1"></feComposite>
            <feGaussianBlur stdDeviation="13" in="shadowOffsetOuter1" result="shadowBlurOuter1"></feGaussianBlur>
            <feColorMatrix values="0 0 0 0 0.4   0 0 0 0 0.6   0 0 0 0 1  0 0 0 1 0" type="matrix" in="shadowBlurOuter1"></feColorMatrix>
        </filter>
        <ellipse id="path-8" cx="1382.50354" cy="585.504741" rx="20.5" ry="12.5"></ellipse>
        <filter x="-100.0%" y="-164.0%" width="300.0%" height="428.0%" filterUnits="objectBoundingBox" id="filter-9">
            <feMorphology radius="1" operator="dilate" in="SourceAlpha" result="shadowSpreadOuter1"></feMorphology>
            <feOffset dx="0" dy="0" in="shadowSpreadOuter1" result="shadowOffsetOuter1"></feOffset>
            <feMorphology radius="6" operator="erode" in="SourceAlpha" result="shadowInner"></feMorphology>
            <feOffset dx="0" dy="0" in="shadowInner" result="shadowInner"></feOffset>
            <feComposite in="shadowOffsetOuter1" in2="shadowInner" operator="out" result="shadowOffsetOuter1"></feComposite>
            <feGaussianBlur stdDeviation="13" in="shadowOffsetOuter1" result="shadowBlurOuter1"></feGaussianBlur>
            <feColorMatrix values="0 0 0 0 0.4   0 0 0 0 0.6   0 0 0 0 1  0 0 0 1 0" type="matrix" in="shadowBlurOuter1"></feColorMatrix>
        </filter>
        <ellipse id="path-10" cx="342.003543" cy="189.004741" rx="31" ry="19"></ellipse>
        <filter x="-66.1%" y="-107.9%" width="232.3%" height="315.8%" filterUnits="objectBoundingBox" id="filter-11">
            <feMorphology radius="1" operator="dilate" in="SourceAlpha" result="shadowSpreadOuter1"></feMorphology>
            <feOffset dx="0" dy="0" in="shadowSpreadOuter1" result="shadowOffsetOuter1"></feOffset>
            <feMorphology radius="6" operator="erode" in="SourceAlpha" result="shadowInner"></feMorphology>
            <feOffset dx="0" dy="0" in="shadowInner" result="shadowInner"></feOffset>
            <feComposite in="shadowOffsetOuter1" in2="shadowInner" operator="out" result="shadowOffsetOuter1"></feComposite>
            <feGaussianBlur stdDeviation="13" in="shadowOffsetOuter1" result="shadowBlurOuter1"></feGaussianBlur>
            <feColorMatrix values="0 0 0 0 0.4   0 0 0 0 0.6   0 0 0 0 1  0 0 0 1 0" type="matrix" in="shadowBlurOuter1"></feColorMatrix>
        </filter>
    </defs>
    <g id="页面-1" stroke="none" stroke-width="1" fill="none" fill-rule="evenodd">
        <g id="首页">
            <g id="top">
                <g id="背景">
                    <path d="M1751.5055,0.000717525344 L1753.51061,0.00366820351 L1898.90305,83.9454703 C1900.91354,82.752427 1903.79846,82.0047412 1907.00354,82.0047412 C1909.55566,82.0047412 1911.90479,82.478813 1913.77108,83.2743173 L1920.00203,79.6768703 L1920.00354,80.8340294 L1914.85816,83.804208 C1916.8038,84.8865047 1918.00354,86.3692006 1918.00354,88.0047412 C1918.00354,89.8756862 1916.43358,91.5466222 1913.97305,92.6469792 L1920.00383,96.1285722 L1920.00032,97.2812472 L1912.77909,93.1121493 C1911.10046,93.6781128 1909.12193,94.0047412 1907.00354,94.0047412 C1904.23026,94.0047412 1901.69668,93.4449443 1899.76188,92.5212105 L1740.71949,184.34393 C1742.15168,185.356933 1743.00354,186.626574 1743.00354,188.004741 C1743.00354,189.819565 1741.52636,191.446199 1739.19205,192.546429 L1897.20417,283.773695 C1899.19643,282.681097 1901.95518,282.004741 1905.00354,282.004741 C1907.34925,282.004741 1909.52347,282.405228 1911.30891,283.087685 L1919.99968,278.07053 L1920.00354,279.22658 L1912.44933,283.588193 C1914.63437,284.684743 1916.00354,286.257528 1916.00354,288.004741 C1916.00354,289.790369 1914.5735,291.393813 1912.30404,292.492923 L1920.00317,296.937989 L1920.00415,298.093256 L1911.15077,292.981131 C1909.39575,293.627408 1907.28043,294.004741 1905.00354,294.004741 C1902.02474,294.004741 1899.32248,293.358901 1897.34174,292.309929 L1737.93389,384.345076 C1740.41692,385.445174 1742.00354,387.123892 1742.00354,389.004741 C1742.00354,390.731697 1740.66594,392.288245 1738.52501,393.382957 L1896.52481,484.60479 C1898.48743,483.611821 1901.11551,483.004741 1904.00354,483.004741 C1906.38192,483.004741 1908.58401,483.416464 1910.3833,484.116369 L1920.00143,478.563969 L1920.00354,479.72165 L1911.51608,484.621966 C1913.66222,485.716913 1915.00354,487.275386 1915.00354,489.004741 C1915.00354,490.702414 1913.71091,492.235409 1911.63322,493.326873 L1920.00265,498.159035 L1920.00452,499.314814 L1910.51985,493.839135 C1908.69594,494.571802 1906.44243,495.004741 1904.00354,495.004741 C1901.05738,495.004741 1898.38175,494.372979 1896.40713,493.344272 L1736.54876,585.638709 C1738.67583,586.732771 1740.00354,588.284182 1740.00354,590.004741 C1740.00354,591.450174 1739.06649,592.776229 1737.50567,593.81203 L1894.65225,684.541313 C1896.6005,683.586011 1899.17757,683.004741 1902.00354,683.004741 C1904.9502,683.004741 1907.62625,683.636719 1909.60097,684.665737 L1920.00287,678.660123 L1920.00279,679.814869 L1910.58598,685.251378 C1912.09858,686.279093 1913.00354,687.584272 1913.00354,689.004741 C1913.00354,690.668444 1911.76213,692.173994 1909.75699,693.260825 L1920.00354,699.177012 L1920.00354,700.333508 L1908.65749,693.782936 C1906.80988,694.549612 1904.50416,695.004741 1902.00354,695.004741 C1899.62385,695.004741 1897.42066,694.592566 1895.62082,693.891959 L1729.36502,789.881 L1920.00276,899.946694 L1920.00294,901.10664 L1728.35902,790.461 L1554.26602,890.976 L1881.6725,1080.00472 L1879.66458,1080.00015 L1553.26502,891.554 L1380.11502,991.524 L1533.3673,1080.00404 L1531.36278,1080.00143 L1379.11502,992.101 L1226.86661,1080.00474 L1224.86586,1080.00474 L1378.11502,991.524 L1205.82402,892.051 L1033.56102,991.507 L1186.83722,1080.00179 L1184.83914,1080.00291 L1032.56102,992.085 L880.282061,1080.00356 L878.280293,1080.00195 L1031.55902,991.506 L858.92702,891.837 L685.04702,992.226 L837.076303,1080.00025 L835.071273,1080.00474 L684.04202,992.806 L533.016786,1080.00197 L531.016277,1080.00047 L683.04102,992.228 L512.23002,893.609 L189.38668,1080.00281 L187.388218,1080.00192 L511.22902,893.031 L337.78102,792.889 L0.00301987933,987.906782 L0.00410830965,986.751453 L336.78202,792.312 L171.850879,697.087738 C170.24251,697.639377 168.353856,697.970185 166.327874,698.002183 L166.003543,698.004741 C163.387809,698.004741 160.985318,697.506742 159.097358,696.675083 L0.00601169333,788.526035 L0.00305441591,787.373042 L158.02879,696.137394 C156.15402,695.061387 155.003543,693.606348 155.003543,692.004741 C155.003543,690.710496 155.754818,689.511961 157.032475,688.531807 L0.00354261442,597.870767 L0.503542614,597.004741 L157.960324,687.911741 C159.968139,686.738352 162.828775,686.004741 166.003543,686.004741 C168.71519,686.004741 171.197669,686.539931 173.115319,687.427222 L331.640928,595.902784 C329.996596,594.85423 329.003543,593.492742 329.003543,592.004741 C329.003543,590.343778 330.240874,588.840447 332.240193,587.754029 L174.231194,496.52789 C172.298182,497.447642 169.770136,498.004741 167.003543,498.004741 C164.215921,498.004741 161.670488,497.439141 159.731918,496.506855 L0.503542614,588.437754 L0.00354261442,587.571729 L158.706661,495.944317 C157.023097,494.890303 156.003543,493.512467 156.003543,492.004741 C156.003543,490.373127 157.197534,488.893624 159.134926,487.812009 L0.00354261442,395.937754 L0.503542614,395.071729 L160.217026,487.282427 C162.086357,486.482036 164.442761,486.004741 167.003543,486.004741 C169.543356,486.004741 171.882127,486.474252 173.744044,487.262831 L333.170975,395.217506 C331.212355,394.134162 330.003543,392.646452 330.003543,391.004741 C330.003543,389.719441 330.74447,388.528533 332.00606,387.552161 L173.682808,296.144242 C172.02501,296.690442 170.081568,297.004741 168.003543,297.004741 C165.635182,297.004741 163.441638,296.596481 161.646549,295.901945 L0.503542614,388.937754 L0.00354261442,388.071729 L160.515851,295.400153 C158.355225,294.304577 157.003543,292.74076 157.003543,291.004741 C157.003543,289.749371 157.710363,288.584049 158.918774,287.620718 L0.00354261442,195.870767 L0.503542614,195.004741 L159.828398,286.990215 C161.841792,285.771151 164.75858,285.004741 168.003543,285.004741 C170.961252,285.004741 173.646317,285.641467 175.623154,286.677329 L334.102031,195.17903 C332.184027,194.09907 331.003543,192.627101 331.003543,191.004741 C331.003543,189.590625 331.900426,188.29077 333.400846,187.265184 L175.237074,95.9490255 C173.465283,96.6148939 171.317879,97.0047412 169.003543,97.0047412 C166.352889,97.0047412 163.921209,96.4933567 162.022022,95.6415976 L0.503542614,188.894493 L0.00354261442,188.028468 L160.962342,95.098921 C159.126871,94.0268266 158.003543,92.5873387 158.003543,91.0047412 C158.003543,89.6202117 158.863289,88.345212 160.307464,87.3299156 L9.05878131,0.00538384512 L11.0607431,0.00651647733 L161.277875,86.7336512 C163.264196,85.6645954 165.992595,85.0047412 169.003543,85.0047412 C171.680735,85.0047412 174.134547,85.5264173 176.041949,86.3935713 L325.671463,0.00400651157 L327.676029,0.00137066701 L177.095026,86.9401286 C178.900708,88.0090514 180.003543,89.436647 180.003543,91.0047412 C180.003543,92.7698134 178.606239,94.3568723 176.382078,95.4547644 L334.383931,186.677329 C336.360768,185.641467 339.045833,185.004741 342.003543,185.004741 C344.753888,185.004741 347.268478,185.555316 349.197073,186.465425 L508.591817,94.4383144 C506.386955,93.34105 505.003543,91.7610174 505.003543,90.0047412 C505.003543,88.4108312 506.142988,86.962084 508.001811,85.8876276 L359.240453,1.13686838e-13 L361.266692,0.00474123795 L509.077215,85.3432938 C510.968215,84.5062926 513.378497,84.0047412 516.003543,84.0047412 C518.998418,84.0047412 521.713754,84.6575699 523.697339,85.716567 L672.153982,0.00549146322 L674.163035,0.000264902817 L524.671674,86.3103512 C526.132698,87.3288103 527.003543,88.6113039 527.003543,90.0047412 C527.003543,91.5592024 525.919801,92.9755973 524.141962,94.0413929 L682.636098,185.549251 C684.586238,184.589232 687.169751,184.004741 690.003543,184.004741 C692.564324,184.004741 694.920729,184.482036 696.790059,185.282427 L855.372563,93.724885 C853.889163,92.702332 853.003543,91.4099496 853.003543,90.0047412 C853.003543,88.4473795 854.091332,87.0285996 855.875083,85.9621269 L706.988881,0.00212149408 L708.998476,0.00766112378 L856.924418,85.4121735 C858.837556,84.5338834 861.30726,84.0047412 864.003543,84.0047412 C866.355347,84.0047412 868.534771,84.4073138 870.322833,85.0930143 L1017.69886,0.00506472739 L1019.69909,0.00492743364 L871.45833,85.592712 C873.638128,86.6890627 875.003543,88.2599266 875.003543,90.0047412 C875.003543,91.5977811 873.865341,93.0458166 872.008318,94.1200947 L1029.11298,184.824296 C1031.11181,183.702018 1033.90839,183.004741 1037.00354,183.004741 C1039.773,183.004741 1042.30342,183.562996 1044.2372,184.484454 L1202.74582,92.9687025 C1201.03892,91.9115979 1200.00354,90.524122 1200.00354,89.0047412 C1200.00354,87.5263317 1200.98383,86.1728091 1202.60921,85.1270135 L1055.17672,0.00625061637 L1057.17947,0.00783948167 L1203.62198,84.5562105 C1205.57377,83.5920572 1208.16291,83.0047412 1211.00354,83.0047412 C1213.56478,83.0047412 1215.92157,83.4822059 1217.79106,84.2828544 L1363.76218,0.00634638253 L1365.75993,0.00764281217 L1218.87216,84.8120093 C1220.80955,85.8936241 1222.00354,87.3731268 1222.00354,89.0047412 C1222.00354,90.6766628 1220.74983,92.1888643 1218.72722,93.2769011 L1376.73292,184.502148 C1378.67136,183.570147 1381.2164,183.004741 1384.00354,183.004741 C1386.33574,183.004741 1388.49842,183.40063 1390.27803,184.075925 L1548.98988,92.4447658 C1547.73814,91.4707477 1547.00354,90.2845373 1547.00354,89.0047412 C1547.00354,87.3081641 1548.2945,85.7760525 1550.36984,84.6847236 L1403.69799,0.00375957202 L1405.70462,0.00758646037 L1551.48223,84.1723602 C1553.30702,83.4384733 1555.56242,83.0047412 1558.00354,83.0047412 C1560.12572,83.0047412 1562.10753,83.3325377 1563.78809,83.9003687 L1709.09839,0.00541031285 L1711.10061,0.00412517839 L1564.98106,84.36609 C1567.43699,85.4664896 1569.00354,87.1358279 1569.00354,89.0047412 C1569.00354,90.4584952 1568.05567,91.791493 1566.47865,92.8298906 L1724.09905,183.832133 C1726.09881,182.705265 1728.90119,182.004741 1732.00354,182.004741 C1735.02453,182.004741 1737.76109,182.669005 1739.74907,183.744364 L1898.72973,91.9587122 C1897.03241,90.9028634 1896.00354,89.5193403 1896.00354,88.0047412 C1896.00354,86.7270094 1896.73577,85.5425615 1897.98383,84.5694313 L1751.5055,0.000717525344 Z M687.11302,792.64 L513.23302,893.029 L684.04602,991.648 L857.92602,891.259 L687.11302,792.64 Z M1379.97602,791.505 L1206.82402,891.474 L1379.11502,990.946 L1552.26502,890.976 L1379.97602,791.505 Z M1032.19002,791.804 L859.92702,891.259 L1032.55802,990.928 L1204.82102,891.472 L1032.19002,791.804 Z M505.197117,696.231916 L338.78402,792.311 L512.23302,892.452 L686.11302,792.062 L520.453334,696.419282 C518.567829,697.366447 516.074004,697.958811 513.327874,698.002183 L513.003543,698.004741 C509.95158,698.004741 507.189917,697.326788 505.197117,696.231916 Z M1200.72195,694.502057 L1033.18902,791.226 L1205.82102,890.895 L1378.97302,790.926 L1213.28827,695.268221 C1211.80872,695.711135 1210.12215,695.973844 1208.32787,696.002183 L1208.00354,696.004741 C1205.21114,696.004741 1202.66176,695.4372 1200.72195,694.502057 Z M855.078221,695.666634 L688.11302,792.063 L858.92602,890.681 L1031.18802,791.225 L866.905591,696.377488 C865.520503,696.754206 863.969257,696.976259 862.327874,697.002183 L862.003543,697.004741 C859.378963,697.004741 856.96907,696.503368 855.078221,695.666634 Z M1555.07202,690.413 L1380.97602,790.927 L1553.26602,890.399 L1727.36002,789.884 L1555.07202,690.413 Z M332.656298,596.470151 L174.15886,687.978243 C175.926666,689.042873 177.003543,690.455211 177.003543,692.004741 C177.003543,693.859179 175.461166,695.517121 173.037967,696.61772 L337.78402,791.734 L504.239214,695.63108 C502.897171,694.667556 502.076942,693.475982 502.008232,692.181649 L502.003543,692.004741 C502.003543,690.314465 503.284933,688.787435 505.346755,687.696901 L347.342717,596.474101 C345.395913,597.425877 342.823662,598.004741 340.003543,598.004741 C337.179525,598.004741 334.604061,597.424276 332.656298,596.470151 Z M679.692123,595.487624 L520.299065,687.514154 C522.571415,688.613328 524.003543,690.21781 524.003543,692.004741 C524.003543,693.464967 523.047216,694.80336 521.457553,695.843742 L687.11202,791.485 L854.01095,695.127131 C852.215819,694.091987 851.089275,692.708296 851.008232,691.181649 L851.003543,691.004741 C851.003543,689.922492 851.528859,688.907166 852.447996,688.030489 L693.068212,596.011239 C691.329578,596.639112 689.244841,597.004741 687.003543,597.004741 C684.196805,597.004741 681.635589,596.431358 679.692123,595.487624 Z M1029.23899,595.115853 L870.142957,686.968686 C871.920206,688.034414 873.003543,689.45057 873.003543,691.004741 C873.003543,693.066541 871.096946,694.885444 868.192969,695.965515 L1032.18802,790.648 L1199.69666,693.938045 C1198.08503,692.926257 1197.08444,691.617151 1197.00823,690.181649 L1197.00354,690.004741 C1197.00354,688.838286 1197.61378,687.749575 1198.66963,686.82841 L1040.15296,595.308058 C1038.61664,595.752802 1036.86403,596.004741 1035.00354,596.004741 C1032.88978,596.004741 1030.91526,595.679538 1029.23899,595.115853 Z M1381.43702,590.166 L1215.82104,685.783657 C1217.78853,686.867697 1219.00354,688.358824 1219.00354,690.004741 C1219.00354,691.984492 1217.24567,693.740294 1214.53486,694.833093 L1379.97302,790.348 L1554.06802,689.834 L1381.43702,590.166 Z M1721.44052,594.361596 L1556.07702,689.833 L1728.36502,789.304 L1894.492,693.388023 C1892.41872,692.330511 1891.09629,690.840471 1891.00823,689.181649 L1891.00354,689.004741 C1891.00354,687.518235 1891.9946,686.157987 1893.63598,685.109858 L1736.50714,594.392071 C1734.54189,595.392514 1731.90379,596.004741 1729.00354,596.004741 C1726.07396,596.004741 1723.41186,595.380067 1721.44052,594.361596 Z M1549.26794,493.270478 L1382.44302,589.585 L1555.07402,689.253 L1720.44775,593.776137 C1718.98244,592.788354 1718.08043,591.541733 1718.00823,590.181649 L1718.00354,590.004741 C1718.00354,588.30022 1719.30662,586.761707 1721.39905,585.669422 L1562.80207,494.104383 C1561.11853,494.675124 1559.1316,495.004741 1557.00354,495.004741 C1553.98757,495.004741 1551.25509,494.342684 1549.26794,493.270478 Z M853.771053,494.984273 L694.793837,586.768722 C696.777322,587.853981 698.003543,589.351252 698.003543,591.004741 C698.003543,592.809659 696.542439,594.428436 694.230192,595.528366 L853.274712,687.353056 C855.285512,685.925156 858.447467,685.004741 862.003543,685.004741 C864.705878,685.004741 867.180617,685.536262 869.095543,686.418094 L1028.04206,594.650562 C1025.57691,593.550251 1024.00354,591.877718 1024.00354,590.004741 C1024.00354,588.868613 1024.58247,587.806237 1025.58818,586.900595 L868.127947,495.989514 C866.377418,496.63067 864.270569,497.004741 862.003543,497.004741 C858.727639,497.004741 855.786199,496.223646 853.771053,494.984273 Z M507.622992,495.45377 L347.759964,587.750268 C349.763352,588.836976 351.003543,590.34186 351.003543,592.004741 C351.003543,593.494535 350.008095,594.857512 348.36021,595.906574 L506.45523,687.183254 C508.284748,686.442767 510.550364,686.004741 513.003543,686.004741 C515.277429,686.004741 517.390168,686.38108 519.14383,687.025797 L678.671717,594.922333 C677.009,593.871179 676.003543,592.502007 676.003543,591.004741 C676.003543,589.660191 676.814355,588.418936 678.183828,587.418513 L520.300245,496.264631 C518.729058,496.736366 516.923759,497.004741 515.003543,497.004741 C512.163399,497.004741 509.574656,496.417627 507.622992,495.45377 Z M1215.98506,494.641598 C1214.08588,495.493357 1211.6542,496.004741 1209.00354,496.004741 C1206.67919,496.004741 1204.52321,495.611511 1202.74702,494.940361 L1044.03031,586.574936 C1045.27407,587.547027 1046.00354,588.729418 1046.00354,590.004741 C1046.00354,592.013957 1044.19296,593.792508 1041.4132,594.881444 L1199.53747,686.173651 C1201.55519,684.848528 1204.59871,684.004741 1208.00354,684.004741 C1210.53743,684.004741 1212.87121,684.472064 1214.731,685.257317 L1380.43502,589.587 Z M1376.71598,394.499175 L1217.68267,486.318029 C1219.13707,487.335253 1220.00354,488.614803 1220.00354,490.004741 C1220.00354,491.585598 1218.88268,493.02366 1217.0508,494.095383 L1381.44202,589.006 L1548.29752,492.672564 C1546.92095,491.701854 1546.07793,490.494622 1546.00823,489.181649 L1546.00354,489.004741 C1546.00354,487.721849 1546.7417,486.532996 1547.99897,485.557651 L1390.72398,394.75513 C1388.86533,395.538595 1386.53424,396.004741 1384.00354,396.004741 C1381.20827,396.004741 1378.65653,395.436034 1376.71598,394.499175 Z M334.258031,395.744528 L174.83109,487.789202 C176.792664,488.872779 178.003543,490.361629 178.003543,492.004741 C178.003543,493.523823 176.968571,494.911052 175.262269,495.968079 L333.335458,587.232422 C335.185434,586.462196 337.496548,586.004741 340.003543,586.004741 C342.506891,586.004741 344.814927,586.460867 346.663552,587.229063 L506.611246,494.883777 C504.984652,493.837802 504.003543,492.483767 504.003543,491.004741 C504.003543,489.835697 504.616496,488.744743 505.676666,487.822279 L346.812041,396.100997 C345.126377,396.67382 343.13581,397.004741 341.003543,397.004741 C338.46145,397.004741 336.120761,396.534388 334.258031,395.744528 Z M680.733913,395.507814 L522.727222,486.732581 C524.749831,487.820618 526.003543,489.33282 526.003543,491.004741 C526.003543,492.981813 524.250425,494.735543 521.54586,495.828653 L679.134926,586.812009 C681.132259,585.696931 683.919703,585.004741 687.003543,585.004741 C689.523756,585.004741 691.846017,585.467033 693.700852,586.244632 L852.868921,494.348677 C851.690946,493.393181 851.003543,492.242748 851.003543,491.004741 C851.003543,489.646055 851.831493,488.392848 853.227207,487.38704 L694.602682,395.805533 C692.764377,396.558547 690.479489,397.004741 688.003543,397.004741 C685.216877,397.004741 682.672234,396.439529 680.733913,395.507814 Z M1028.23821,394.254378 L868.819964,486.295277 C871.368282,487.39415 873.003543,489.095281 873.003543,491.004741 C873.003543,492.795583 871.565141,494.403175 869.284136,495.502537 L1026.44182,586.237348 C1028.45831,584.875627 1031.54447,584.004741 1035.00354,584.004741 C1038.21234,584.004741 1041.10024,584.754165 1043.11104,585.949629 L1201.60287,494.443806 C1199.39158,493.346325 1198.00354,491.763949 1198.00354,490.004741 C1198.00354,488.436357 1199.10678,487.008523 1200.91306,485.939535 L1042.86863,394.693099 C1040.98696,395.513929 1038.60033,396.004741 1036.00354,396.004741 C1032.97251,396.004741 1030.2278,395.336052 1028.23821,394.254378 Z M1722.86711,393.042586 L1564.373,484.550244 C1566.60244,485.648297 1568.00354,487.23727 1568.00354,489.004741 C1568.00354,490.870353 1566.44252,492.537094 1563.99407,493.637555 L1722.51632,585.158705 C1724.33507,584.433096 1726.5776,584.004741 1729.00354,584.004741 C1731.39868,584.004741 1733.61503,584.422287 1735.42128,585.131208 L1895.4191,492.756745 C1893.9077,491.729238 1893.00354,490.424584 1893.00354,489.004741 C1893.00354,487.551912 1893.95021,486.219685 1895.52542,485.181574 L1737.39714,393.887723 C1735.5953,394.590904 1733.38802,395.004741 1731.00354,395.004741 C1727.77932,395.004741 1724.87909,394.248097 1722.86711,393.042586 Z M508.276881,295.275296 L349.295417,387.062033 C350.981966,388.116448 352.003543,389.495522 352.003543,391.004741 C352.003543,392.868321 350.445921,394.533464 348.002063,395.633958 L506.545507,487.168376 C508.563269,485.846289 511.603231,485.004741 515.003543,485.004741 C517.490204,485.004741 519.784148,485.454806 521.626523,486.213742 L679.708663,394.94557 C678.023906,393.891396 677.003543,392.513064 677.003543,391.004741 C677.003543,389.531571 677.976899,388.182404 679.591956,387.138144 L521.873733,296.079878 C520.175031,296.665678 518.16188,297.004741 516.003543,297.004741 C512.992093,297.004741 510.263286,296.344667 508.276881,295.275296 Z M855.699075,294.490997 L695.832094,386.789757 C697.793077,387.873288 699.003543,389.361909 699.003543,391.004741 C699.003543,392.681868 697.742012,394.198278 695.708309,395.287051 L854.18504,486.784211 C856.178752,485.685439 858.945411,485.004741 862.003543,485.004741 C864.049899,485.004741 865.965743,485.309534 867.606816,485.840431 L1027.27471,393.656426 C1025.8503,392.644928 1025.00354,391.378772 1025.00354,390.004741 C1025.00354,388.465654 1026.06595,387.061915 1027.81258,385.999814 L869.751059,294.743678 C867.888003,295.53405 865.546547,296.004741 863.003543,296.004741 C860.20015,296.004741 857.641694,295.432724 855.699075,294.490997 Z M1201.8393,294.025856 L1043.34173,385.534898 C1045.58933,386.633465 1047.00354,388.229019 1047.00354,390.004741 C1047.00354,391.614481 1045.84135,393.076161 1043.94968,394.153757 L1201.9731,485.389954 C1203.87937,484.524967 1206.33007,484.004741 1209.00354,484.004741 C1212.00444,484.004741 1214.72468,484.6602 1216.70931,485.722965 L1375.69066,393.934279 C1374.01664,392.881562 1373.00354,391.507685 1373.00354,390.004741 C1373.00354,388.502096 1374.01624,387.128467 1375.68966,386.075832 L1217.17191,294.555898 C1215.24663,295.45894 1212.74194,296.004741 1210.00354,296.004741 C1206.76443,296.004741 1203.85231,295.241092 1201.8393,294.025856 Z M1551.24201,293.737722 L1391.81702,385.781441 C1393.78687,386.865665 1395.00354,388.357702 1395.00354,390.004741 C1395.00354,391.652621 1393.78563,393.145342 1391.814,394.229702 L1548.92209,484.9342 C1550.93173,483.74772 1553.80857,483.004741 1557.00354,483.004741 C1559.31221,483.004741 1561.45477,483.392683 1563.22406,484.055573 L1721.95068,392.414062 C1720.72281,391.445865 1720.00354,390.27112 1720.00354,389.004741 C1720.00354,387.581499 1720.91204,386.273996 1722.42997,385.245361 L1564.27604,293.934315 C1562.49681,294.609149 1560.33487,295.004741 1558.00354,295.004741 C1555.45416,295.004741 1553.10733,294.531685 1551.24201,293.737722 Z M335.182145,195.712059 L176.60624,287.265184 C178.106659,288.29077 179.003543,289.590625 179.003543,291.004741 C179.003543,292.897527 177.396716,294.585607 174.886513,295.685281 L332.929115,386.930055 C334.938439,385.74599 337.81229,385.004741 341.003543,385.004741 C343.788775,385.004741 346.332233,385.569372 348.27018,386.500231 L507.307464,294.679567 C505.863289,293.664271 505.003543,292.389271 505.003543,291.004741 C505.003543,289.704991 505.761222,288.501768 507.048805,287.519313 L348.360536,195.901945 C346.565447,196.596481 344.371903,197.004741 342.003543,197.004741 C339.426808,197.004741 337.057004,196.521481 335.182145,195.712059 Z M682.775891,194.52789 L523.38107,286.554221 C525.605816,287.652131 527.003543,289.239402 527.003543,291.004741 C527.003543,292.854099 525.469604,294.508037 523.057859,295.608664 L680.601862,386.566176 C682.555952,385.596106 685.153137,385.004741 688.003543,385.004741 C690.543812,385.004741 692.882966,385.47442 694.745046,386.263256 L854.677694,293.926108 C853.01141,292.874458 852.003543,291.5038 852.003543,290.004741 C852.003543,288.494924 853.025928,287.115356 854.713673,286.06078 L696.631483,194.793695 C694.788267,195.553868 692.492436,196.004741 690.003543,196.004741 C687.236949,196.004741 684.708904,195.447642 682.775891,194.52789 Z M1376.31174,193.293981 L1216.90065,285.330405 C1219.40275,286.430218 1221.00354,288.115511 1221.00354,290.004741 C1221.00354,291.539065 1219.9477,292.938876 1218.21071,293.999796 L1376.71399,385.511269 C1378.65478,384.573837 1381.20732,384.004741 1384.00354,384.004741 C1386.5347,384.004741 1388.86617,384.471055 1390.72498,385.254775 L1550.15393,293.208057 C1548.20534,292.12552 1547.00354,290.641684 1547.00354,289.004741 C1547.00354,287.610986 1547.87479,286.328225 1549.33641,285.309654 L1390.74404,193.746651 C1388.88213,194.535231 1386.54336,195.004741 1384.00354,195.004741 C1381.00967,195.004741 1378.29515,194.35235 1376.31174,193.293981 Z M1030.22302,193.729619 L870.799891,285.772036 C872.779817,286.857029 874.003543,288.352935 874.003543,290.004741 C874.003543,291.643367 872.799268,293.12857 870.847143,294.211394 L1028.86041,385.441785 C1030.78232,384.54579 1033.27709,384.004741 1036.00354,384.004741 C1038.29827,384.004741 1040.42889,384.388011 1042.19196,385.043594 L1200.92972,293.397471 C1199.71463,292.432459 1199.00354,291.263895 1199.00354,290.004741 C1199.00354,288.388271 1200.17547,286.921101 1202.08117,285.842229 L1043.04024,194.021307 C1041.30724,194.643019 1039.23283,195.004741 1037.00354,195.004741 C1034.4455,195.004741 1032.09139,194.528465 1030.22302,193.729619 Z M1725.79706,192.959158 L1566.28238,285.053896 C1567.9767,286.109349 1569.00354,287.491636 1569.00354,289.004741 C1569.00354,290.761017 1567.62013,292.34105 1565.41527,293.438314 L1723.41622,384.660478 C1725.38996,383.634566 1728.0619,383.004741 1731.00354,383.004741 C1733.10133,383.004741 1735.06196,383.325047 1736.73003,383.880887 L1896.36149,291.71724 C1894.88476,290.695894 1894.00354,289.40645 1894.00354,288.004741 C1894.00354,286.640891 1894.8378,285.383322 1896.24315,284.375581 L1738.02423,193.027039 C1736.29447,193.645242 1734.22597,194.004741 1732.00354,194.004741 C1729.70097,194.004741 1727.56364,193.618847 1725.79706,192.959158 Z M523.084649,94.5963989 C521.171235,95.4752335 518.700756,96.0047412 516.003543,96.0047412 C513.672651,96.0047412 511.511087,95.6092964 509.732045,94.9346931 L350.230975,187.022101 C351.955909,188.081515 353.003543,189.476395 353.003543,191.004741 C353.003543,192.740493 351.652275,194.304097 349.49223,195.399649 L507.977496,286.901727 C509.984433,285.734179 512.837816,285.004741 516.003543,285.004741 C518.317879,285.004741 520.465283,285.394589 522.237074,286.060457 L681.744817,193.968079 C680.038514,192.911052 679.003543,191.523823 679.003543,190.004741 C679.003543,188.524511 679.986251,187.169475 681.615222,186.12315 Z M856.350766,94.3147019 L697.872159,185.812009 C699.809552,186.893624 701.003543,188.373127 701.003543,190.004741 C701.003543,191.672827 699.755576,193.181926 697.741129,194.269407 L855.747885,285.494964 C857.684454,284.567242 860.223567,284.004741 863.003543,284.004741 C865.527403,284.004741 867.852737,284.468372 869.708901,285.248009 L1029.14092,193.200818 C1027.2,192.11891 1026.00354,190.638038 1026.00354,189.004741 C1026.00354,187.666766 1026.80644,186.431078 1028.16378,185.433207 L870.941938,94.6608396 C869.04913,95.5010526 866.634175,96.0047412 864.003543,96.0047412 C861.029259,96.0047412 858.330685,95.3608591 856.350766,94.3147019 Z M1203.77689,93.5283664 L1045.2663,185.0439 C1046.9702,186.100614 1048.00354,187.486855 1048.00354,189.004741 C1048.00354,190.815655 1046.53272,192.439188 1044.20712,193.53931 L1203.1573,285.308182 C1205.03605,284.492285 1207.41541,284.004741 1210.00354,284.004741 C1212.08787,284.004741 1214.03681,284.320951 1215.6979,284.870221 L1375.33841,192.701224 C1373.87558,191.682429 1373.00354,190.399133 1373.00354,189.004741 C1373.00354,187.496717 1374.0235,186.118633 1375.70766,185.064539 L1217.62454,93.7965574 C1215.7825,94.5549997 1213.48931,95.0047412 1211.00354,95.0047412 C1208.23743,95.0047412 1205.70978,94.4478346 1203.77689,93.5283664 Z M1549.91006,93.0681673 L1391.41828,184.572667 C1393.62139,185.669871 1395.00354,187.249265 1395.00354,189.004741 C1395.00354,190.647573 1393.79308,192.136195 1391.83209,193.219726 L1550.30975,284.716567 C1552.29333,283.65757 1555.00867,283.004741 1558.00354,283.004741 C1560.78017,283.004741 1563.31652,283.56589 1565.25221,284.491616 L1724.64619,192.465195 C1722.40972,191.366936 1721.00354,189.775411 1721.00354,188.004741 C1721.00354,186.670382 1721.80211,185.437758 1723.15278,184.441303 L1565.47729,93.4072119 C1563.51521,94.3986878 1560.88913,95.0047412 1558.00354,95.0047412 C1554.80219,95.0047412 1551.92024,94.2587912 1549.91006,93.0681673 Z" id="形状结合" fill="url(#linearGradient-1)"></path>
                    <path d="M1904.10543,691.272015 C1903.75492,691.890646 1903.24538,692.404308 1902.62959,692.759789 L1373.55257,998.185114 C1371.63941,997.084686 1370.98057,994.641693 1372.08099,992.728538 C1372.43187,992.118516 1372.93762,991.611969 1373.54708,991.260125 L1896.64616,689.273975 L1384.04096,393.284966 C1382.12782,392.18028 1381.47244,389.73385 1382.57713,387.820712 C1382.88436,387.288646 1383.3094,386.835545 1383.81825,386.495409 L1384.04136,386.356652 C1384.0503,386.357966 1384.05335,386.356195 1384.05642,386.354428 L1920.00354,76.9519753 L1919.96453,83.9137579 L1390.04716,389.823975 L1902.62391,685.786369 C1903.92018,686.534839 1904.63917,687.899165 1904.62467,689.296348 L1904.62432,689.318784 C1904.62284,689.981954 1904.45565,690.6539 1904.10543,691.272015 Z" id="形状结合" fill="url(#linearGradient-2)" opacity="0.750302269"></path>
                    <path d="M1920.45892,275.004741 L1920.41991,281.966524 L1387.90354,589.376741 L1555.81654,686.345741 L1555.83419,686.335849 C1557.75037,687.440561 1558.40819,689.889477 1557.30348,691.805655 C1556.9519,692.415485 1556.4458,692.921875 1555.83617,693.273801 L1026.49051,998.854479 L1020.45654,995.409738 L1549.80754,689.814741 L1383.79393,593.932858 C1381.39275,592.546041 1380.57044,589.47526 1381.95726,587.074077 C1382.0806,586.860523 1382.21945,586.656444 1382.37264,586.463467 L1382.53057,586.274252 L1382.78414,586.421079 C1382.85641,586.235682 1382.94347,586.053358 1383.04571,585.875606 C1383.39659,585.265585 1383.90233,584.759038 1384.5118,584.407194 L1920.45892,275.004741 Z" id="形状结合" fill="url(#linearGradient-3)" opacity="0.750302269"></path>
                    <path d="M0,196.3515 C3.56360158,195.358737 6.00354261,193.337161 6.00354261,191.004741 C6.00354261,188.674101 3.5673228,186.65383 0.00815358559,185.660256 C0.00815358559,187.252067 0.00815358559,194.65947 0,196.3515 Z" id="椭圆形" fill="#1B217D"></path>
                    <g id="椭圆形">
                        <use fill="black" fill-opacity="1" filter="url(#filter-5)" xlink:href="#path-4"></use>
                        <ellipse stroke="#5984E9" stroke-width="5" stroke-linejoin="square" cx="690.003543" cy="389.004741" rx="28.5" ry="16.5"></ellipse>
                    </g>
                    <g id="椭圆形">
                        <use fill="black" fill-opacity="1" filter="url(#filter-7)" xlink:href="#path-6"></use>
                        <ellipse stroke="#5984E9" stroke-width="5" stroke-linejoin="square" cx="1383.00354" cy="385.004741" rx="28.5" ry="16.5"></ellipse>
                    </g>
                    <g id="椭圆形" opacity="0.402994792">
                        <use fill="black" fill-opacity="1" filter="url(#filter-9)" xlink:href="#path-8"></use>
                        <ellipse stroke="#5984E9" stroke-width="5" stroke-linejoin="square" cx="1382.50354" cy="585.504741" rx="18" ry="10"></ellipse>
                    </g>
                    <ellipse id="椭圆形" stroke="#5984E9" stroke-width="4" opacity="0.402994792" cx="1556.00354" cy="689.004741" rx="25" ry="14"></ellipse>
                    <path d="M1917.3647,680.073328 C1913.29225,678.165432 1907.9077,677.004741 1902.00354,677.004741 C1889.30099,677.004741 1879.00354,682.377324 1879.00354,689.004741 C1879.00354,695.632158 1889.30099,701.004741 1902.00354,701.004741 C1907.87957,701.004741 1913.24094,699.855083 1917.30641,697.96337 C1918.28469,697.508164 1919.18793,697.00999 1920.00525,696.474527 C1919.99506,698.241451 1919.98314,699.788008 1919.96777,700.94958 C1915.19527,703.471864 1908.90149,705.004741 1902.00354,705.004741 C1887.09185,705.004741 1875.00354,697.841297 1875.00354,689.004741 C1875.00354,680.168185 1887.09185,673.004741 1902.00354,673.004741 C1908.9345,673.004741 1914.53142,674.167035 1920.0362,677.096191 C1920.0362,678.323831 1920.0362,679.854029 1920.03558,681.553934 C1919.22737,681.022984 1918.33313,680.527029 1917.3647,680.073328 Z" id="形状结合" fill="#5984E9" opacity="0.402994792"></path>
                    <g id="椭圆形">
                        <use fill="black" fill-opacity="1" filter="url(#filter-11)" xlink:href="#path-10"></use>
                        <ellipse stroke="#5984E9" stroke-width="5" stroke-linejoin="square" cx="342.003543" cy="189.004741" rx="28.5" ry="16.5"></ellipse>
                    </g>
                </g>
            </g>
        </g>
    </g>
</svg>